<?xml version="1.0" encoding="utf-8"?>
<!-- Generator: Adobe Illustrator 27.7.0, SVG Export Plug-In . SVG Version: 6.00 Build 0)  -->
<svg version="1.1" id="Layer_1" xmlns="http://www.w3.org/2000/svg" xmlns:xlink="http://www.w3.org/1999/xlink" x="0px" y="0px"
	 viewBox="0 0 250 250" style="enable-background:new 0 0 250 250;" xml:space="preserve">
<style type="text/css">
	.st0{stroke:#000000;stroke-width:0.25;stroke-linecap:round;stroke-linejoin:round;stroke-miterlimit:10;}
	.st1{fill-rule:evenodd;clip-rule:evenodd;}
	
		.st2{fill-rule:evenodd;clip-rule:evenodd;stroke:#000000;stroke-width:0.25;stroke-linecap:round;stroke-linejoin:round;stroke-miterlimit:10;}
</style>
<g>
	<path class="st0" d="M179.21,29.98c0.58,0,1.12,0.31,1.41,0.81l3.22,5.57c0.29,0.5,0.29,1.12,0,1.63l-3.69,6.39l-3.64,6.31
		L176,51.58l-4.16,7.2l-4.16,7.2l-4.15,7.2l-1.42,2.45l-2.74,4.75l-4.16,7.2l-4.15,7.2l-3.35,5.8l-0.81,1.4l-4.16,7.2l-4.15,7.2
		l-4.16,7.2l-1.12,1.94l-3.04,5.26l-4.15,7.2l-4.16,7.2l-3.05,5.28l-1.11,1.92l-4.16,7.2l-4.15,7.2l-4.16,7.2l-0.82,1.42l-3.34,5.77
		v0.01l-4.15,7.2l-4.16,7.2l-2.75,4.76c-0.63,1.08,0.16,2.44,1.41,2.44h69.2c1.25,0,2.03-1.35,1.41-2.44l-0.01-0.02l-2.74-4.74
		l-4.16-7.2l-4.15-7.2v-0.01l-3.35-5.79l-0.81-1.4l-4.16-7.2l-4.15-7.2l-3.69-6.39c-0.29-0.5-0.29-1.12,0-1.63l3.68-6.39l2.75-4.76
		c0.31-0.54,0.86-0.81,1.41-0.81c0.55,0,1.1,0.27,1.41,0.81l2.75,4.76l0.81,1.4l3.35,5.8l4.15,7.2l4.16,7.2l2.74,4.75l1.42,2.45
		l4.15,7.2l4.16,7.2l4.16,7.19v0.01l0.51,0.89l3.64,6.31l3.69,6.39c0.29,0.5,0.29,1.12,0,1.63l-3.22,5.57
		c-0.29,0.5-0.83,0.81-1.41,0.81H73.01c-0.58,0-1.12-0.31-1.41-0.81l-3.68-6.38v-0.01l4.16-7.2l3.63-6.3l0.52-0.89l4.16-7.21
		l4.16-7.2l4.15-7.2l1.41-2.44l2.75-4.76l4.16-7.2l4.15-7.2l3.34-5.78l0.82-1.42l4.16-7.2l4.15-7.2l4.16-7.2l1.11-1.92l3.05-5.28
		l4.16-7.2l4.15-7.2l3.04-5.26l1.12-1.94l4.16-7.2l4.15-7.2l4.16-7.2l0.81-1.4l3.35-5.8l4.15-7.2l4.16-7.2l2.74-4.74l0.01-0.02
		c0.62-1.08-0.16-2.44-1.41-2.44H91.52c-1.25,0-2.03,1.36-1.41,2.44l2.75,4.76l4.16,7.2l4.15,7.2l3.34,5.78l0.82,1.42l4.16,7.2
		l4.15,7.2l3.69,6.39c0.29,0.5,0.29,1.12,0,1.63l-3.68,6.39l-2.75,4.76c-0.31,0.54-0.86,0.81-1.41,0.81c-0.55,0-1.1-0.27-1.41-0.81
		l-2.75-4.76l-0.82-1.42l-3.34-5.78l-4.15-7.2l-4.16-7.2l-2.75-4.76l-1.41-2.44l-4.15-7.2l-4.16-7.2l-4.16-7.21l-0.52-0.89
		l-3.63-6.3l-3.69-6.39c-0.29-0.5-0.29-1.12,0-1.63l3.21-5.57c0.29-0.5,0.83-0.81,1.41-0.81H179.21 M179.21,26.98H73.01
		c-1.65,0-3.18,0.88-4.01,2.32l-3.21,5.57c-0.83,1.43-0.82,3.19,0,4.62l3.69,6.39l3.63,6.3l0.53,0.91l4.15,7.2l4.16,7.2l4.15,7.2
		l1.41,2.44l2.75,4.76l4.16,7.2l4.15,7.2l3.34,5.78l0.82,1.42l2.69,4.65c0.44,0.76,1.04,1.42,1.81,1.84
		c2.36,1.28,5.07,0.34,6.27-1.73l2.75-4.76l3.68-6.39c0.83-1.43,0.82-3.19,0-4.62l-3.69-6.39l-4.15-7.2l-4.16-7.2l-0.82-1.42
		l-3.34-5.78l-4.15-7.2l-4.16-7.2v0c-0.69-1.2,0.17-2.7,1.56-2.7h58.2c1.38,0,2.25,1.5,1.56,2.7v0l-4.16,7.2l-4.15,7.2l-3.35,5.8
		l-0.81,1.4l-4.16,7.2l-4.15,7.2l-4.16,7.2l-1.12,1.94l-3.04,5.26l-4.15,7.2l-4.16,7.2l-3.05,5.28l-1.11,1.92l-4.16,7.2l-4.15,7.2
		l-4.16,7.2l-0.82,1.42l-3.34,5.78l-4.15,7.2l-4.16,7.2l-2.75,4.76l-1.41,2.44l-4.15,7.2l-4.16,7.2l-4.16,7.21l-0.51,0.88
		l-3.64,6.32l-4.16,7.2c-0.26,0.46-0.4,0.97-0.4,1.5c0,0.53,0.14,1.05,0.4,1.51l3.68,6.38c0.83,1.43,2.35,2.31,4.01,2.31h106.2
		c1.65,0,3.18-0.88,4.01-2.31l3.22-5.57c0.83-1.43,0.83-3.2,0-4.63l-3.69-6.39l-3.64-6.31l-0.43-0.74
		c-0.03-0.05-0.06-0.11-0.09-0.16l-4.16-7.19l-4.16-7.2l-4.15-7.2l-1.42-2.46l-2.74-4.74l-4.16-7.2l-4.15-7.2l-3.35-5.8l-0.81-1.4
		l-2.69-4.65c-0.44-0.76-1.04-1.42-1.81-1.84c-2.36-1.28-5.07-0.34-6.27,1.73l-2.75,4.76l-3.68,6.39c-0.83,1.43-0.82,3.19,0,4.62
		l3.69,6.39l4.15,7.2l4.16,7.2l0.81,1.4l3.27,5.65c0.02,0.05,0.05,0.1,0.08,0.15l4.15,7.2l4.16,7.2l0,0c0.69,1.2-0.17,2.7-1.56,2.7
		h-58.2c-1.39,0-2.25-1.5-1.56-2.7l0,0l4.16-7.2l4.15-7.2c0.03-0.05,0.05-0.1,0.08-0.15l3.26-5.63l0.82-1.42l4.16-7.2l4.15-7.2
		l4.16-7.2l1.11-1.92l3.05-5.28l4.16-7.2l4.15-7.2l3.04-5.26l1.12-1.94l4.16-7.2l4.15-7.2l4.16-7.2l0.81-1.4l3.35-5.8l4.15-7.2
		l4.16-7.2l2.74-4.75l1.42-2.44l4.15-7.21l4.16-7.2l4.16-7.2l0.52-0.9l3.64-6.3l3.69-6.38c0.83-1.43,0.83-3.2,0-4.63l-3.22-5.57
		C182.4,27.86,180.86,26.98,179.21,26.98L179.21,26.98z"/>
	<g>
		<path class="st1" d="M73.01,217.05c-0.53,0-1.03-0.29-1.3-0.75l-3.65-6.32l4.13-7.14l3.63-6.3l0.52-0.89l8.32-14.41l12.47-21.6
			l4.15-7.2l8.32-14.4l4.15-7.2l12.48-21.6l4.15-7.2l8.32-14.4l4.15-7.2l8.32-14.4l4.15-7.2l6.9-11.94
			c0.33-0.57,0.33-1.22,0.01-1.77s-0.88-0.88-1.52-0.88h-69.2c-0.63,0-1.2,0.33-1.52,0.88c-0.32,0.55-0.32,1.2,0,1.75l6.91,11.96
			l4.15,7.2l8.32,14.4l4.15,7.2l3.69,6.39c0.27,0.46,0.27,1.04,0,1.5l-3.68,6.39l-2.75,4.76c-0.27,0.47-0.76,0.75-1.3,0.75
			s-1.03-0.28-1.3-0.75l-6.91-11.96l-4.15-7.2l-8.32-14.4l-4.15-7.2L76.34,51.5l-0.52-0.89l-3.63-6.3l-3.69-6.39
			c-0.27-0.46-0.27-1.04,0-1.5l3.21-5.57c0.27-0.46,0.77-0.75,1.3-0.75h106.2c0.54,0,1.03,0.29,1.3,0.75l3.22,5.57
			c0.27,0.46,0.27,1.04,0,1.5l-7.33,12.7l-0.51,0.89l-8.32,14.4l-4.15,7.2L162,75.56l-6.9,11.95l-12.47,21.6l-4.15,7.2l-8.32,14.4
			l-4.15,7.2l-12.48,21.6l-4.15,7.2l-4.98,8.62l-3.34,5.77l-4.15,7.21L90,200.27c-0.32,0.55-0.32,1.2,0,1.75s0.88,0.88,1.52,0.88
			h69.2c0.63,0,1.2-0.33,1.52-0.88c0.32-0.55,0.32-1.2,0-1.75l-6.91-11.96l-12.47-21.6l-4.15-7.2l-3.69-6.39
			c-0.27-0.46-0.27-1.04,0-1.5l6.43-11.15c0.27-0.47,0.76-0.75,1.3-0.75c0.54,0,1.03,0.28,1.3,0.75l6.91,11.96l4.15,7.2l6.9,11.95
			l1.42,2.45l4.15,7.2l8.32,14.39l0.51,0.9l7.33,12.7c0.27,0.46,0.27,1.04,0,1.5l-3.22,5.57c-0.27,0.46-0.76,0.75-1.3,0.75H73.01z"
			/>
		<path d="M179.21,30.23c0.49,0,0.95,0.26,1.19,0.69l3.22,5.57c0.25,0.42,0.25,0.95,0,1.38l-3.69,6.39l-3.64,6.31l-0.51,0.89
			l-4.16,7.2l-4.16,7.2l-4.15,7.2l-1.42,2.45l-2.74,4.75l-4.16,7.2l-4.15,7.2l-3.35,5.8l-0.81,1.4l-4.16,7.2l-4.15,7.2l-4.16,7.2
			l-1.12,1.94l-3.04,5.26l-4.15,7.2l-4.16,7.2l-3.05,5.28l-1.11,1.92l-4.16,7.2l-4.15,7.2l-4.16,7.2l-0.82,1.42l-3.34,5.77
			c-0.01,0.01-0.01,0.03-0.02,0.04l-4.13,7.17l-4.16,7.2l-2.75,4.76c-0.34,0.59-0.34,1.29,0,1.88c0.34,0.59,0.95,0.94,1.63,0.94
			h69.2c0.68,0,1.29-0.35,1.62-0.94c0.34-0.59,0.34-1.29-0.01-1.9l-2.74-4.74l-4.16-7.2l-4.13-7.16c-0.01-0.02-0.01-0.03-0.02-0.05
			l-3.35-5.79l-0.81-1.4l-4.16-7.2l-4.15-7.2l-3.69-6.39c-0.25-0.42-0.25-0.95,0-1.38l3.68-6.39l2.75-4.76
			c0.25-0.43,0.69-0.69,1.19-0.69c0.5,0,0.94,0.26,1.19,0.69l2.75,4.76l0.81,1.4l3.35,5.8l4.15,7.2l4.16,7.2l2.74,4.75l1.42,2.45
			l4.15,7.2l4.16,7.2l4.14,7.15c0.01,0.02,0.01,0.03,0.02,0.04l0.51,0.89l3.64,6.31l3.69,6.39c0.25,0.42,0.25,0.95,0,1.38
			l-3.22,5.57c-0.25,0.42-0.7,0.69-1.19,0.69H73.01c-0.49,0-0.95-0.26-1.19-0.69l-3.61-6.26l4.09-7.08l3.63-6.3l0.52-0.89l4.16-7.21
			l4.16-7.2l4.15-7.2l1.41-2.44l2.75-4.76l4.16-7.2l4.15-7.2l3.34-5.78l0.82-1.42l4.16-7.2l4.15-7.2l4.16-7.2l1.11-1.92l3.05-5.28
			l4.16-7.2l4.15-7.2l3.04-5.26l1.12-1.94l4.16-7.2l4.15-7.2l4.16-7.2l0.81-1.4l3.35-5.8l4.15-7.2l4.16-7.2l2.75-4.76
			c0.34-0.59,0.34-1.29,0-1.88c-0.34-0.59-0.95-0.94-1.62-0.94h-69.2c-0.68,0-1.29,0.35-1.63,0.94c-0.34,0.59-0.34,1.29,0,1.88
			l2.75,4.76l4.16,7.2l4.15,7.2l3.34,5.78l0.82,1.42l4.16,7.2l4.15,7.2l3.69,6.39c0.25,0.42,0.25,0.95,0,1.38l-3.68,6.39l-2.75,4.76
			c-0.25,0.43-0.69,0.69-1.19,0.69c-0.5,0-0.94-0.26-1.19-0.69l-2.75-4.76l-0.82-1.42l-3.34-5.78l-4.15-7.2l-4.16-7.2l-2.75-4.76
			l-1.41-2.44l-4.15-7.2l-4.16-7.2l-4.16-7.21l-0.52-0.89l-3.63-6.3l-3.69-6.39c-0.25-0.42-0.25-0.95,0-1.38l3.21-5.57
			c0.24-0.42,0.7-0.69,1.19-0.69H179.21 M179.21,29.98H73.01c-0.58,0-1.12,0.31-1.41,0.81l-3.21,5.57c-0.29,0.5-0.29,1.12,0,1.63
			l3.69,6.39l3.63,6.3l0.52,0.89l4.16,7.21l4.16,7.2l4.15,7.2l1.41,2.44l2.75,4.76l4.16,7.2l4.15,7.2l3.34,5.78l0.82,1.42l2.75,4.76
			c0.31,0.54,0.86,0.81,1.41,0.81c0.55,0,1.1-0.27,1.41-0.81l2.75-4.76l3.68-6.39c0.29-0.5,0.29-1.12,0-1.63l-3.69-6.39l-4.15-7.2
			l-4.16-7.2l-0.82-1.42l-3.34-5.78l-4.15-7.2l-4.16-7.2l-2.75-4.76c-0.63-1.08,0.16-2.44,1.41-2.44h69.2
			c1.25,0,2.03,1.36,1.41,2.44l-0.01,0.02l-2.74,4.74l-4.16,7.2l-4.15,7.2l-3.35,5.8l-0.81,1.4l-4.16,7.2l-4.15,7.2l-4.16,7.2
			l-1.12,1.94l-3.04,5.26l-4.15,7.2l-4.16,7.2l-3.05,5.28l-1.11,1.92l-4.16,7.2l-4.15,7.2l-4.16,7.2l-0.82,1.42l-3.34,5.78
			l-4.15,7.2l-4.16,7.2l-2.75,4.76l-1.41,2.44l-4.15,7.2l-4.16,7.2l-4.16,7.21l-0.52,0.89l-3.63,6.3l-4.16,7.2v0.01l3.68,6.38
			c0.29,0.5,0.83,0.81,1.41,0.81h106.2c0.58,0,1.12-0.31,1.41-0.81l3.22-5.57c0.29-0.5,0.29-1.12,0-1.63l-3.69-6.39l-3.64-6.31
			l-0.51-0.89v-0.01l-4.16-7.19l-4.16-7.2l-4.15-7.2l-1.42-2.45l-2.74-4.75l-4.16-7.2l-4.15-7.2l-3.35-5.8l-0.81-1.4l-2.75-4.76
			c-0.31-0.54-0.86-0.81-1.41-0.81c-0.55,0-1.1,0.27-1.41,0.81l-2.75,4.76l-3.68,6.39c-0.29,0.5-0.29,1.12,0,1.63l3.69,6.39
			l4.15,7.2l4.16,7.2l0.81,1.4l3.35,5.79v0.01l4.15,7.2l4.16,7.2l2.74,4.74l0.01,0.02c0.63,1.08-0.16,2.44-1.41,2.44h-69.2
			c-1.25,0-2.03-1.36-1.41-2.44l2.75-4.76l4.16-7.2l4.15-7.2v-0.01l3.34-5.77l0.82-1.42l4.16-7.2l4.15-7.2l4.16-7.2l1.11-1.92
			l3.05-5.28l4.16-7.2l4.15-7.2l3.04-5.26l1.12-1.94l4.16-7.2l4.15-7.2l4.16-7.2l0.81-1.4l3.35-5.8l4.15-7.2l4.16-7.2l2.74-4.75
			l1.42-2.45l4.15-7.2l4.16-7.2l4.16-7.2l0.51-0.89l3.64-6.31l3.69-6.39c0.29-0.5,0.29-1.12,0-1.63l-3.22-5.57
			C180.33,30.29,179.79,29.98,179.21,29.98L179.21,29.98z"/>
	</g>
</g>
<path class="st2" d="M113.74,180.82c-1.44-1.39-3.82-0.94-4.56,0.92c-1.55,3.84-3.09,7.69-4.64,11.53c-0.82,1.42,0.2,3.19,1.84,3.19
	h39.21c1.64,0,2.66-1.77,1.84-3.19c-1.63-1.94-3.25-3.87-4.88-5.81c-0.62-0.72-1.59-1.64-2.96-2.4c-2.78-1.53-5.49-1.4-6.64-1.27
	c-2.96,0.12-5.54,0.08-7.62,0c-7.6-0.31-9.43-1.26-10.28-1.87C114.57,181.57,114.14,181.2,113.74,180.82z"/>
</svg>
